<?xml version="1.0" encoding="UTF-8" standalone="no"?>
<!-- Created with Inkscape (http://www.inkscape.org/) -->

<svg
   version="1.1"
   id="svg9"
   xml:space="preserve"
   width="755.90533"
   height="755.90533"
   viewBox="0 0 755.90533 755.90533"
   sodipodi:docname="MF_IconOrange.svg"
   inkscape:version="1.1.1 (3bf5ae0d25, 2021-09-20)"
   xmlns:inkscape="http://www.inkscape.org/namespaces/inkscape"
   xmlns:sodipodi="http://sodipodi.sourceforge.net/DTD/sodipodi-0.dtd"
   xmlns="http://www.w3.org/2000/svg"
   xmlns:svg="http://www.w3.org/2000/svg"><defs
     id="defs13"><clipPath
       clipPathUnits="userSpaceOnUse"
       id="clipPath23"><path
         d="M 0,566.929 H 566.929 V 0 H 0 Z"
         id="path21" /></clipPath></defs><sodipodi:namedview
     id="namedview11"
     pagecolor="#ffffff"
     bordercolor="#666666"
     borderopacity="1.0"
     inkscape:pageshadow="2"
     inkscape:pageopacity="0.0"
     inkscape:pagecheckerboard="0"
     showgrid="false"
     inkscape:zoom="0.9895419"
     inkscape:cx="377.44738"
     inkscape:cy="377.95267"
     inkscape:window-width="1920"
     inkscape:window-height="986"
     inkscape:window-x="-11"
     inkscape:window-y="-11"
     inkscape:window-maximized="1"
     inkscape:current-layer="g15" /><g
     id="g15"
     inkscape:groupmode="layer"
     inkscape:label="5.MF_IconOrange"
     transform="matrix(1.3333333,0,0,-1.3333333,0,755.90533)"><g
       id="g17"><g
         id="g19"
         clip-path="url(#clipPath23)"><g
           id="g25"
           transform="translate(44.8223,315.7856)"><path
             d="m 0,0 h 169.906 5.508 l -52.942,52.942 c -7.724,7.724 -9.329,18.758 -3.567,24.52 l 0.738,0.738 c 5.762,5.762 16.796,4.157 24.52,-3.567 L 204,14.795 V 34.094 204 c 0,11.809 6.288,22.196 15.661,28.058 C 86.367,222.87 -20.061,116.253 -28.948,-17.124 -23.288,-6.938 -12.419,0 0,0"
             style="fill:#f57f29;fill-opacity:1;fill-rule:nonzero;stroke:none"
             id="path27" /></g><g
           id="g29"
           transform="translate(248.8228,43.2514)"><path
             d="M 0,0 V 183.138 L -59.838,123.3 c -7.724,-7.724 -18.758,-9.328 -24.519,-3.567 l -0.739,0.739 c -5.761,5.761 -4.157,16.796 3.567,24.519 l 59.01,59.01 H -34.093 -204 c -12.532,0 -23.493,7.059 -29.109,17.395 C -225.136,85.691 -116.219,-22.856 19.649,-30.198 8.104,-25.016 0,-13.418 0,0"
             style="fill:#f57f29;fill-opacity:1;fill-rule:nonzero;stroke:none"
             id="path31" /></g><g
           id="g33"
           transform="translate(317.3555,519.7861)"><path
             d="m 0,0 v -169.907 -11.574 l 52.115,52.114 c 7.724,7.724 18.757,9.329 24.52,3.567 l 0.738,-0.739 c 5.762,-5.762 4.156,-16.795 -3.567,-24.519 L 20.863,-204 h 13.231 169.907 c 12.553,0 23.526,-7.084 29.135,-17.449 C 224.395,-87.867 117.804,18.948 -15.68,28.069 -6.297,22.209 0,11.817 0,0"
             style="fill:#f57f29;fill-opacity:1;fill-rule:nonzero;stroke:none"
             id="path35" /></g><g
           id="g37"
           transform="translate(521.3564,247.2524)"><path
             d="m 0,0 h -169.907 -19.298 l 59.01,-59.01 c 7.723,-7.723 9.329,-18.758 3.567,-24.519 l -0.738,-0.739 c -5.763,-5.762 -16.796,-4.157 -24.52,3.567 l -52.115,52.115 v -175.415 c 0,-13.429 -8.116,-25.034 -19.675,-30.211 136.085,7.27 245.189,116.058 252.977,252.003 C 23.75,7.244 12.688,0 0,0"
             style="fill:#f57f29;fill-opacity:1;fill-rule:nonzero;stroke:none"
             id="path39" /></g></g></g></g></svg>
